# xmcd
#
# Track frame offsets: 
#        183
#        14188
#        30555
#        40640
#        54080
#        68080
#        80578
#        94925
#        105425
#        120303
#
# Disc length: 1754 seconds
#
# Revision: 8
# Processed by: cddbd v1.5.2PL0 Copyright (c) Steve Scherf et al.
# Submitted via: ExactAudioCopy v0.95b4
#
DISCID=7206d80a
DTITLE=Alan Jackson - Here In The Real World
DYEAR=1989
DGENRE=Country
TTITLE0=Ace Of Hearts
TTITLE1=Here In The Real World
TTITLE2=Blue Blooded Woman
TTITLE3=Wanted
TTITLE4=Chasin' That Neon Rainbow
TTITLE5=She Don't Get The Blues
TTITLE6=I'd Love You All Over Again
TTITLE7=Dog River Blues
TTITLE8=Home
TTITLE9=Short Sweet Ride
EXTD=YEAR: 1989
EXTT0=
EXTT1=
EXTT2=
EXTT3=
EXTT4=
EXTT5=
EXTT6=
EXTT7=
EXTT8=
EXTT9=
PLAYORDER=
